<svg xmlns="http://www.w3.org/2000/svg" xml:space="preserve" width="326.856" height="388.758" style="shape-rendering:geometricPrecision;text-rendering:geometricPrecision;image-rendering:optimizeQuality;fill-rule:evenodd;clip-rule:evenodd" viewBox="0 0 8594.28 10221.88"><defs><style>.fil0{fill:#339084}</style></defs><g id="Capa_x0020_1"><path d="M5277.49 10221.88c14.7-124.53 12.19-284.39 18.45-415.67 18.64-391.68 78.02-1424.44 304.09-1701.18 83.85-102.65 479.11-271.92 609.84-320.39l649.75-263.97c366.9-158.11 319.37-175.87 543.65-431.9 74.99-85.61 288.64-277.76 386.47-364.12 201.56-177.95 190.7-237.3 349.94-426.28 82.07-97.37 155.54-184.21 239.52-269.2 50.32-50.9 217.33-210.2 215.03-299.38-62.24-89.75-236.43-49.63-300.25-24.65-217.84 85.22-505.75 367.18-655.4 555.1 253.05 125.73 217.52 207.68 40.59 353.86l-381.19 245.47c-42.13 23.79-66.55 36.6-98.67 58.3-36.59 24.72-235.98 91.9-316.73 129.2-350.3 161.9-268.74 183.31-369.22 249.18l-12.31 6.37c63.01-118.62 228.95-212.94 344.47-263.89 107.15-47.25 334.58-122.32 394.83-158.62l178.86-115.53c96.02-69.36 279.38-166.4 341.42-248.44 118.98-157.27-152.43-320.34-515.23-171.21-223.66 91.94-216.32 117.59-369.81 200.87-96.43 52.31-283.64 109.64-409.06 134.87-58.99 11.86-169.96 16.15-235.24 21.01-310.67 23.17-735.12 108.76-1018.11 243.47-63.31 30.15-165.13 92.49-220.06 142.86-135.32 124.05-285.17 453.58-356.5 626.65-336.23 976.09 39.41 1772.35 640.85 2507.21zm2330.16-3964.44c59.56-94.73 131.47-114.08 179.32-232 41.09-101.28 84.46-202.37 129.86-301.99 50.82-111.55 154.46-322.76 223.72-424.92 25.23-37.25 67.18-83.34 83.15-112.16-66.17-53.64-116.2-100.54-221.72-77.32-33.85 7.45-68.5 24.83-94.78 43.93-25.16 18.32-50.62 43.88-72.61 70.32-93.77 112.77-169.96 240.27-245.57 377.3-74.37 134.79-141.64 295.01-218.83 420.62-72.25 117.53-175.94 234.2-253.54 353.63 74.4-44.74 121.85-76.81 218.39-103.01 80.38-21.81 181.15-30.45 272.61-14.4zm-869.98 310.77c81.02-6.67 130.61-51.19 183.38-84.98 48.85-31.3 134.92-61.74 169.19-109.89 43.28-60.78 80.74-125.82 124.54-186.34 42.93-59.31 91.76-104.04 129.94-165.76 78.61-127.04 149.41-276.76 217.19-413.91 34.6-70.07 68.28-143.2 112.52-205.51 34.24-48.23 101.89-131.61 121.91-183.34-157.97-87.55-296.88 17.7-376.96 129.07-80.76 112.32-149.34 291.12-222.12 416.29-174.14 299.53-359.17 486.51-459.58 804.38zm-359.8 89.79c36.52-3.13 293.09-52.94 310.92-63.28 15.39-8.94 132.29-273.01 155.06-315.64 51.4-96.17 116.27-194.9 178.78-275.74 31.64-40.93 86.63-245.33 130.77-350.6-112.74-63.41-182.56-63.12-274.71 89.32-54.13 89.51-101.36 237.78-145.85 340.55-165.97 383.34-287.81 394.76-354.98 575.4zM3316.77 10221.87c-14.68-124.52-12.2-284.38-18.44-415.66-18.64-391.68-78.01-1424.44-304.09-1701.18-83.85-102.64-479.11-271.92-609.85-320.39l-649.74-263.97c-366.89-158.11-319.37-175.87-543.65-431.9-74.99-85.61-288.65-277.76-386.47-364.12-201.55-177.95-190.7-237.32-349.94-426.28-82.06-97.37-155.55-184.21-239.53-269.2-50.31-50.9-217.32-210.2-215.02-299.38 62.25-89.75 236.43-49.64 300.25-24.65 217.84 85.22 505.76 367.17 655.4 555.1-253.06 125.73-217.52 207.68-40.59 353.86l381.19 245.48c42.13 23.78 66.54 36.6 98.68 58.29 36.59 24.72 235.97 91.89 316.72 129.21 350.29 161.89 268.73 183.3 369.22 249.17l12.31 6.37c-63.02-118.63-228.95-212.94-344.47-263.89-107.15-47.25-334.58-122.32-394.83-158.63l-178.86-115.52c-96.02-69.36-279.38-166.4-341.42-248.44-118.98-157.25 152.43-320.33 515.23-171.21 223.65 91.93 216.32 117.6 369.81 200.88 96.43 52.3 283.64 109.63 409.05 134.86 59 11.86 169.97 16.15 235.25 21.02 310.67 23.16 735.13 108.75 1018.11 243.46 63.31 30.15 165.13 92.48 220.07 142.86 135.31 124.05 285.17 453.57 356.48 626.65 336.24 976.09-39.4 1772.35-640.85 2507.2zM986.62 6257.43c-59.55-94.72-131.47-114.07-179.32-231.99-41.09-101.28-84.46-202.37-129.85-302-50.83-111.54-154.46-322.75-223.73-424.92-25.23-37.24-67.18-83.33-83.15-112.15 66.17-53.65 116.19-100.54 221.72-77.33 33.84 7.45 68.51 24.84 94.78 43.94 25.16 18.32 50.6 43.88 72.6 70.32 93.79 112.77 169.96 240.27 245.57 377.29 74.38 134.8 141.65 295.02 218.85 420.63 72.24 117.53 175.93 234.2 253.53 353.64-74.4-44.75-121.85-76.84-218.38-103.02-80.4-21.81-181.16-30.46-272.62-14.41zm869.98 310.79c-81.02-6.68-130.62-51.2-183.37-84.99-48.86-31.31-134.93-61.73-169.21-109.89-43.27-60.78-80.73-125.82-124.53-186.34-42.93-59.3-91.77-104.04-129.95-165.76-78.6-127.04-149.41-276.76-217.18-413.91-34.61-70.07-68.29-143.2-112.51-205.49-34.25-48.24-101.91-131.63-121.93-183.35 157.97-87.56 296.89 17.69 376.97 129.06 80.77 112.31 149.34 291.11 222.13 416.29 174.13 299.53 359.16 486.5 459.57 804.39zm359.79 89.78c-36.52-3.13-293.08-52.93-310.91-63.28-15.38-8.93-132.29-273.01-155.07-315.64-51.38-96.17-116.26-194.91-178.77-275.74-31.64-40.93-86.63-245.34-130.76-350.58 112.73-63.43 182.55-63.13 274.7 89.31 54.12 89.5 101.36 237.77 145.85 340.54 165.96 383.34 287.81 394.76 354.97 575.4zM4185.68 959.17c-23.37-15.43 48.1-113.87 160.79-206.07 112.67-92.19 266.58-178.14 437.49-264.56 170.92-86.43 358.86-173.33 548.39-245.3 189.53-71.95 380.69-128.99 567.81-162.77 187.14-33.79 370.24-44.35 570.64-32.02 200.38 12.36 418.03 47.65 603.97 108.36 185.92 60.74 340.14 146.93 469.57 243.89 129.38 96.99 233.97 204.81 315.59 330.93 81.64 126.12 140.31 270.56 172.71 467.21 32.41 196.64 38.53 445.5 3.21 724.77-35.33 279.24-112.1 588.92-220.86 932.57-108.78 343.6-249.55 721.16-366.27 1018.82-116.73 297.66-209.39 515.4-323.97 752.58-114.58 237.16-251.12 493.72-387.48 715.26-136.38 221.51-272.54 407.99-404.16 555.3-131.62 147.31-258.67 255.47-368.06 314.31-122.74 66.05-232.56 82.66-371.79 77.78-144.37-5.07-260.03-50.09-346.99-135.05-86.95-84.98-150.17-205.24-189.66-360.81-25.85-87.64-36.55-194.02-32.16-319.14 4.87-137.95 24.57-287.41 59.15-448.43 34.55-160.99 76.38-322.53 125.44-484.63 49.06-162.1 103.46-315.99 163.18-461.63 59.73-145.68 115.58-272.2 167.54-379.57 65.57-129.4 124.12-241.38 175.61-335.92 51.52-94.56 99.51-180.41 143.99-257.53 44.46-77.13 88-150.29 130.57-219.47 42.59-69.16 87.69-141.44 135.3-216.87 6.87-12.61 10.42-22.11 10.64-28.54.57-16.03-7.17-24.34-23.21-24.89-3.21-.14-11.34 2.79-24.4 8.78-569.45 391.11-1110.81 828.21-1624.08 1311.26-513.28 483.05-997.09 973.57-1451.45 1471.52-13.06 5.97-26.09 11.14-39.09 15.49-13.01 4.38-27.65 9.48-43.92 15.32-16.27 5.85-32.56 12.5-48.87 19.97-16.33 7.44-32.62 14.1-48.88 19.96-9.86 6.06-18.85 10.59-26.97 13.5-8.13 2.94-17.02 4.21-26.64 3.91-48.12-1.72-71.23-29.82-69.31-84.37l.69-19.24c14.96-60.5 31.36-116.15 49.22-166.91 17.85-50.77 40.73-107.79 68.66-171.03 76.67-170.79 169.02-353.83 277.09-549.18 108.05-195.38 222.62-393.69 343.73-595.01a23090.34 23090.34 0 0 1 372.8-598.82c105.22-163.43 206.88-318.73 304.94-465.97-129.77 25.08-261.83 57.63-393.92 100.42-315.6 112.15-297.33 24.67-22.63-75.13 160.89-52.11 324.27-97.46 489.25-133.9 112.64-167.68 216.52-320.61 311.56-458.79 98.18-142.7 180.98-259.44 248.41-350.22-225.35 14.56-434.62 28.07-627.78 40.57-193.17 12.49-376.09 30.13-548.74 52.97-172.66 22.84-339.16 53.14-499.48 90.85-160.33 37.73-318.68 87.58-475.03 149.53-29.32 11.83-48.92 20.75-58.76 26.83-9.86 6.07-15.06 17.13-15.62 33.19-.9 25.65 14.3 50.28 45.58 73.88 81.49 57.47 157.46 112.34 227.9 164.61 70.43 52.24 150.27 88 239.55 107.18 50.99 11.43 106.96 18.22 167.93 20.36 41.69 1.47 70.63.89 86.77-1.75l14.44.49c19.26.69 28.66 7.44 28.19 20.26-.22 6.43-2.87 13.57-7.97 21.41-5.1 7.86-12.51 13.22-22.25 16.09-25.89 5.5-50.92 9.44-75.1 11.81-24.16 2.38-49.08 3.1-74.77 2.2-189.27-6.66-361.2-49.64-515.83-128.97-53.63-27.57-99.36-51.67-137.17-72.28-37.83-20.59-64.65-34.39-80.45-41.36-34.74-17.28-60.43-40.69-77.06-70.16-16.63-29.5-24.54-55.49-23.75-77.93.89-25.67 11.46-51.8 31.66-78.38 20.22-26.59 45.05-47.41 74.46-62.44 274.47-131.69 618.47-232 1032.07-300.98 412.68-68.84 878.99-116.58 1398.93-143.24l81.04-109.4c57.17-75.75 95.53-119.68 153.79-141.68 57.13-21.56 120.53-16.29 226 6.92 217.83 47.98 543.11 138.19 716.25 203.9 41.47 15.71 75.21 30.49 98.08 43.49 56.83 32.25 74.99 70.27 44.2 114.09-8.44 11.8-20.08 20.76-35.1 26.52l-12.61 4.85-78.93-6.16c-360.88-26.65-736.47-17.27-1099.28-4.39-47.59 45.59-110.83 121.99-189.69 229.17-94.44 128.37-201.05 282.83-319.84 463.36-18.28 27.78-36.69 56-55.3 84.68 260.38-45.67 523.75-67.53 786.64-57.57 454.57 34.62 315 88.82 156.84 114.26-100.63 16.2-198.59 15.67-299.96 16.32-162.25 1.08-338.55-1.43-529.71 18.58-61.53 6.45-124.19 14.11-187.71 23.21-79.87 125.16-162.64 258.17-248.39 399.15-132.97 218.56-263.63 440.43-392.02 665.6-128.36 225.13-249.33 444.93-362.85 659.37-113.55 214.44-210.25 406.96-290.14 577.63-3.43 6.31-5.28 12.68-5.5 19.07-.57 16.05 3.98 24.25 13.59 24.57 19.25.68 37.35-11.53 54.3-36.62 170.38-186.75 373.63-394.82 609.75-624.22 236.14-229.38 490.05-462.18 761.75-698.36 271.7-236.15 555.33-468.73 850.86-697.62 295.54-228.91 589.57-437.81 882.1-626.68 52.67-36.69 101.47-54.25 146.39-52.67 25.67.9 46.25 9.67 61.71 26.26 15.48 16.6 22.89 34.54 22.21 53.78-.35 9.63-2.3 19.18-5.82 28.7-75.55 138.69-142.48 260.81-200.79 366.35-58.34 105.58-113.24 205.61-164.75 300.19-51.52 94.55-101.42 189.15-149.71 283.82-48.3 94.68-100.24 202.04-155.87 322.15-62.71 139.13-121.61 284-176.69 434.67-55.09 150.62-102.96 301.52-143.6 452.67-40.65 151.15-73.1 297.78-97.38 439.88-24.26 142.07-38.43 270.85-42.49 386.37-1.58 44.9-1.46 87.46.33 127.66 1.81 40.23 5.3 78.11 10.48 113.61 20.46 148.49 68.67 261.8 144.62 339.96 75.94 78.15 163.65 118.99 263.1 122.48 211.14 7.39 374.31-211.41 483.62-366.61 106.26-150.83 245.96-377.55 396.05-717.59s310.54-793.42 439.55-1228.76c128.98-435.36 226.53-852.69 295.19-1248.73 68.66-396.03 108.44-770.79 100-1074.96-8.43-304.18-65.06-537.78-167.49-722-102.46-184.26-250.72-319.07-401.62-409.39-150.9-90.29-304.41-136.09-473.73-155.84-169.3-19.78-354.39-13.54-515.75 12.67-161.37 26.21-299.01 72.36-451.47 124.9-152.46 52.53-319.76 111.48-483.12 179.82-163.39 68.39-322.85 146.18-461.66 218.88-138.84 72.67-257.04 140.25-280.4 124.81zM5017 1782.5l44.17-1.1c251.67-5.73 500.8-2.42 744.1 9.22-162.18-49.52-357.16-100.85-503.73-133.13-81.95-18.04-127.61-23.5-157.79-12.12-29.08 10.99-56.48 43.86-100.17 101.73l-26.58 35.4z" class="fil0"/><path d="M5838.29 1229.81c-18.94 16.6-86.3 58.86-208.46 88.57-122.19 29.71-299.19 46.85-463.12 55.98-163.96 9.09-314.87 10.18-500.37-2.73-185.47-12.9-405.53-39.76-619.26-95.09-213.77-55.32-421.19-139.13-625.27-228.1-204.06-88.99-404.77-183.17-588.92-264.02-184.16-80.85-351.8-148.39-476.81-188.93-125.01-40.49-207.43-54.05-300.84-56.24-93.44-2.22-197.87 6.85-293.59 39.62-95.71 32.74-182.71 89.18-253.57 170.63-70.88 81.45-125.6 187.88-156.64 315.39-31.06 127.46-38.42 275.95-41.24 446.92-2.82 170.98-1.11 364.44 32.38 620.6 33.51 256.19 98.76 575.13 259.37 1054.64 160.57 479.55 416.45 1119.7 602.35 1543.8 185.93 424.11 301.87 632.19 405.48 798.41 103.58 166.22 194.85 290.53 278.65 384.88 83.83 94.33 160.2 158.64 225.23 182.16 65.05 23.54 118.79 6.31 172-26.88 53.25-33.21 105.96-82.34 170.08-152.34 64.08-69.99 139.52-160.86 216.66-269.68 77.16-108.88 155.98-235.73 214.14-348.41 58.16-112.74 95.6-211.29 142.43-333.95 46.81-122.71 102.97-269.47 131.51-355.6 28.52-86.11 29.41-111.56 29.86-124.31.46-12.73.46-12.73-8.24 52.84-8.68 65.57-26.05 196.71-60.87 371.89-34.85 175.14-87.18 394.28-137.9 566.75-50.68 172.49-99.74 298.27-156.2 423.79-56.48 125.52-120.39 250.76-179 346.45-58.61 95.7-111.94 161.83-168.1 218.28-56.19 56.48-115.23 103.27-174.44 125.61-59.23 22.35-118.65 20.27-225.11-34.49-106.43-54.72-259.93-162.14-432.28-366.87-172.38-204.75-363.64-506.86-482.26-699.11-118.62-192.22-164.59-274.59-246.9-442.17-82.28-167.6-200.89-420.4-312.61-687.81-111.74-267.48-216.58-549.52-308.97-822.66-92.4-273.13-172.37-537.32-239.94-813.84-67.57-276.51-122.75-565.34-151.04-840.74-28.29-275.37-29.72-537.32-21.73-733.89 7.95-196.57 25.32-327.71 62.75-454.93 37.39-127.25 94.86-250.6 158.89-349.28 64.06-98.72 134.65-172.73 233.38-230.89 98.74-58.16 225.6-100.44 368.37-111.36 142.75-10.94 301.41 9.55 515.03 98.87 213.62 89.3 482.2 247.5 682.25 359.74 200.07 112.22 331.6 178.47 526.68 280.98 195.12 102.47 453.74 241.19 736.32 332.96 282.58 91.75 589.15 136.53 816.95 155.14 227.79 18.66 376.82 11.13 499.15 6.95 122.35-4.2 218.01-5.09 280.58-10.09 62.6-4.95 92.12-14.02 73.21 2.57z" class="fil0"/></g></svg>