<svg xmlns="http://www.w3.org/2000/svg" xml:space="preserve" width="389.405" height="504.994" style="shape-rendering:geometricPrecision;text-rendering:geometricPrecision;image-rendering:optimizeQuality;fill-rule:evenodd;clip-rule:evenodd" viewBox="0 0 10300.2 13357.69"><defs><style>.fil0,.fil1{fill:#fff}.fil1{fill-rule:nonzero}</style></defs><g id="Capa_x0020_1"><path d="M6110.68 10283.04c14.79-125.28 12.27-286.09 18.56-418.16 18.75-394.02 78.49-1432.96 305.91-1711.36 84.35-103.26 481.98-273.55 613.49-322.3l653.64-265.55c369.1-159.06 321.28-176.92 546.9-434.48 75.44-86.13 290.37-279.42 388.78-366.3 202.76-179.01 191.84-238.72 352.03-428.83 82.56-97.95 156.47-185.31 240.95-270.81 50.62-51.21 218.63-211.46 216.32-301.17-62.61-90.29-237.84-49.93-302.05-24.79-219.14 85.73-508.78 369.38-659.32 558.42 254.56 126.49 218.82 208.92 40.83 355.97l-383.48 246.94c-42.38 23.93-66.95 36.82-99.26 58.64-36.81 24.86-237.4 92.45-318.62 129.97-352.39 162.87-270.35 184.41-371.43 250.67l-12.39 6.41c63.38-119.33 230.32-214.21 346.54-265.47 107.79-47.54 336.58-123.06 397.19-159.57l179.93-116.22c96.59-69.77 281.05-167.39 343.47-249.92 119.69-158.21-153.34-322.25-518.31-172.23-225 92.49-217.61 118.3-372.02 202.07-97 52.63-285.34 110.3-411.51 135.67-59.34 11.93-170.97 16.25-236.65 21.13-312.52 23.3-739.52 109.41-1024.2 244.92-63.69 30.33-166.11 93.04-221.38 143.71-136.13 124.8-286.87 456.3-358.63 630.4-338.24 981.93 39.65 1782.95 644.68 2522.21zm2344.1-3988.16c59.91-95.29 132.25-114.76 180.39-233.39 41.34-101.88 84.97-203.58 130.63-303.8 51.13-112.22 155.39-324.69 225.06-427.46 25.38-37.47 67.58-83.84 83.65-112.83-66.56-53.97-116.9-101.14-223.05-77.78-34.05 7.5-68.91 24.98-95.34 44.19-25.31 18.42-50.93 44.14-73.04 70.74-94.33 113.45-170.97 241.7-247.04 379.56-74.82 135.59-142.49 296.78-220.14 423.13-72.68 118.24-176.99 235.61-255.06 355.74 74.85-45.01 122.58-77.27 219.7-103.62 80.86-21.94 182.23-30.63 274.24-14.49zM7579.6 6607.5c81.51-6.71 131.39-51.5 184.48-85.49 49.15-31.49 135.72-62.11 170.2-110.55 43.54-61.14 81.23-126.58 125.29-187.46 43.19-59.66 92.3-104.66 130.71-166.75 79.08-127.8 150.31-278.41 218.49-416.39 34.81-70.49 68.69-144.06 113.19-206.74 34.44-48.52 102.5-132.39 122.64-184.44-158.92-88.08-298.66 17.81-379.22 129.84-81.25 112.99-150.23 292.86-223.45 418.79-175.18 301.32-361.32 489.42-462.33 809.19zm-361.95 90.33c36.74-3.15 294.84-53.26 312.78-63.66 15.49-9 133.08-274.64 155.99-317.53 51.71-96.74 116.97-196.07 179.85-277.39 31.83-41.18 87.15-246.8 131.55-352.69-113.42-63.79-183.65-63.49-276.35 89.86-54.46 90.05-101.96 239.2-146.72 342.59-166.96 385.63-289.53 397.12-357.1 578.84zM4138.23 10283.03c-14.77-125.27-12.28-286.08-18.55-418.15-18.75-394.02-78.48-1432.96-305.91-1711.36-84.35-103.25-481.98-273.55-613.5-322.3l-653.63-265.55c-369.09-159.06-321.28-176.92-546.9-434.48-75.44-86.13-290.38-279.42-388.78-366.3-202.75-179.01-191.84-238.74-352.03-428.83-82.55-97.95-156.48-185.31-240.96-270.81-50.61-51.21-218.62-211.46-216.31-301.17 62.62-90.29 237.84-49.94 302.05-24.79 219.14 85.73 508.79 369.37 659.32 558.42-254.57 126.49-218.82 208.92-40.83 355.97l383.48 246.95c42.38 23.92 66.94 36.82 99.27 58.63 36.81 24.86 237.39 92.44 318.61 129.98 352.38 162.86 270.34 184.4 371.43 250.66l12.39 6.41c-63.39-119.34-230.32-214.21-346.54-265.47-107.79-47.54-336.58-123.06-397.19-159.58l-179.93-116.21c-96.59-69.77-281.05-167.39-343.47-249.92-119.69-158.19 153.34-322.24 518.31-172.23 224.99 92.48 217.61 118.31 372.02 202.08 97 52.62 285.34 110.29 411.5 135.66 59.35 11.93 170.98 16.25 236.66 21.14 312.52 23.29 739.53 109.4 1024.2 244.91 63.69 30.33 166.11 93.03 221.39 143.71 136.12 124.8 286.87 456.29 358.61 630.4 338.25 981.93-39.64 1782.95-644.68 2522.2zM1794.14 6294.87c-59.9-95.28-132.25-114.75-180.39-233.38-41.34-101.88-84.97-203.58-130.62-303.81-51.14-112.21-155.39-324.68-225.07-427.46-25.38-37.46-67.58-83.83-83.65-112.82 66.56-53.98 116.89-101.14 223.05-77.79 34.04 7.5 68.92 24.99 95.34 44.2 25.31 18.42 50.91 44.14 73.03 70.74 94.35 113.45 170.97 241.7 247.04 379.55 74.83 135.6 142.5 296.79 220.16 423.14 72.67 118.24 176.98 235.61 255.05 355.75-74.85-45.02-122.58-77.3-219.69-103.63-80.88-21.94-182.24-30.64-274.25-14.5zm875.18 312.64c-81.51-6.72-131.4-51.51-184.47-85.5-49.16-31.5-135.73-62.1-170.22-110.55-43.53-61.14-81.22-126.58-125.28-187.46-43.19-59.65-92.31-104.66-130.72-166.75-79.07-127.8-150.3-278.41-218.48-416.39-34.82-70.49-68.7-144.06-113.18-206.72-34.45-48.53-102.52-132.41-122.66-184.45 158.92-88.09 298.67 17.8 379.23 129.83 81.26 112.98 150.23 292.85 223.46 418.79 175.17 301.32 361.31 489.41 462.32 809.2zm361.94 90.32c-36.74-3.15-294.83-53.25-312.77-63.66-15.48-8.99-133.08-274.64-156-317.53-51.69-96.74-116.96-196.08-179.84-277.39-31.83-41.18-87.15-246.81-131.54-352.67 113.41-63.81 183.64-63.51 276.34 89.85 54.45 90.04 101.96 239.19 146.72 342.58 166.95 385.63 289.53 397.12 357.09 578.84z" class="fil0"/><path d="M308.87 13356.17c88.97 0 156.53-38.62 206.49-88.21l-39.13-54.45c-43.34 42.46-101.21 74.58-169.15 74.58-123.27 0-239-104.15-239-240.02 0-136.27 116.89-241.04 237.85-241.04 66.03 0 126.59 31.23 169.92 75.58l39.51-53.41c-54.43-54.94-129.5-90.26-206.88-91.01-168.76 0-308.48 140.71-308.48 309.88 0 170.68 141.62 308.1 308.87 308.1zm643.07-543.03v-66.53H598.22v601.91h353.72v-67.3H666.29v-209.55h247.54v-68.07H666.29v-190.45h285.65zm523.91-68.07v449.98l-412.24-457.74h-3.82v611.99h68.07v-449.6l412.62 457.99h3.44v-612.62h-68.07zm568.13 1.54h-417.59v67.3h175.14v534.6h68.07v-534.6h174.37v-67.3zm514.72 601.91-178.58-242.69c73.17-22.06 126.33-89.24 126.33-167.24 0-106.05-90.89-191.97-202.42-191.97h-177.82l.38 601.91h67.82v-234.92h112.42l168.01 234.92h83.87zm-364.43-292.41v-242.19h112.04c70.88 0 130.53 53.66 130.53 123.13 0 64.89-58.89 119.45-130.53 119.45l-112.04-.38zm711.79 300.07c170.81 0 309.51-138.94 309.51-308.48 0-170.55-138.69-309.5-309.12-309.5-170.17 0-308.87 138.94-308.87 309.5 0 169.53 138.69 308.48 308.48 308.48zm0-68.84c-132.43 0-240.4-107.83-240.4-240.02 0-132.43 107.97-241.05 240.4-241.05 133.08 0 241.43 108.62 241.43 241.05 0 132.19-108.35 240.02-241.43 240.02zm906.43 68.84c170.81 0 309.51-138.94 309.51-308.48 0-170.55-138.69-309.5-309.12-309.5-170.17 0-308.87 138.94-308.87 309.5 0 169.53 138.69 308.48 308.48 308.48zm0-68.84c-132.43 0-240.4-107.83-240.4-240.02 0-132.43 107.97-241.05 240.4-241.05 133.08 0 241.43 108.62 241.43 241.05 0 132.19-108.35 240.02-241.43 240.02zm572.72-541.36-167.49.38v602.17h167.49c187.38 0 306.82-116.88 306.82-300.57 0-184.45-119.44-301.73-306.82-301.73v-.25zm.76 534.6h-100.31v-466.78h99.29c145.45 0 238.75 91.9 238.75 234.16 0 141.49-92.92 232.63-237.73 232.63zm678.77 75.6c170.81 0 309.51-138.94 309.51-308.48 0-170.55-138.69-309.5-309.12-309.5-170.17 0-308.87 138.94-308.87 309.5 0 169.53 138.69 308.48 308.48 308.48zm0-68.84c-132.43 0-240.4-107.83-240.4-240.02 0-132.43 107.97-241.05 240.4-241.05 133.08 0 241.43 108.62 241.43 241.05 0 132.19-108.35 240.02-241.43 240.02zm821.29-542.26v449.98l-412.24-457.74h-3.82v611.99h68.07v-449.6l412.62 457.99h3.44v-612.62h-68.07zm568.13 1.54h-417.59v67.3h175.14v534.6h68.07v-534.6h174.37v-67.3zm329.64 609.56c170.81 0 309.51-138.94 309.51-308.48 0-170.55-138.69-309.5-309.12-309.5-170.17 0-308.87 138.94-308.87 309.5 0 169.53 138.69 308.48 308.48 308.48zm0-68.84c-132.43 0-240.4-107.83-240.4-240.02 0-132.43 107.97-241.05 240.4-241.05 133.08 0 241.43 108.62 241.43 241.05 0 132.19-108.35 240.02-241.43 240.02zm473.3-6.12v-534.6h-68.07v601.91h363.03v-67.3H7257.1zm649.96-583.68 88.98-122.13h-61.56l-78.53 122.13h51.12zm4.59 658.64c170.81 0 309.51-138.94 309.51-308.48 0-170.55-138.69-309.5-309.12-309.5-170.17 0-308.87 138.94-308.87 309.5 0 169.53 138.69 308.48 308.48 308.48zm0-68.84c-132.43 0-240.4-107.83-240.4-240.02 0-132.43 107.97-241.05 240.4-241.05 133.08 0 241.43 108.62 241.43 241.05 0 132.19-108.35 240.02-241.43 240.02zm967.76-257.75h-285.92v61.18h215.68c.38 3.33.38 7.4.38 11.86 0 106.7-92.53 185.48-210.06 185.48-138.82 0-245.13-107.97-245.13-240.15 0-136.39 112.69-241.69 239.52-241.69 60.41 0 133.58 32.39 180.24 78.65l37.98-56.46c-54.05-52.51-144.04-89.86-217.84-90.24-169.79 0-308.74 139.69-308.74 309.75 0 169.91 138.56 308.99 311.28 308.99 155.26 0 285.15-115.49 285.15-284.52 0-17.08-1.53-33.14-2.55-42.83zm98.15 318.93h68.07v-601.91h-68.07v601.91zm472.41 7.66c88.97 0 156.53-38.62 206.49-88.21l-39.13-54.45c-43.34 42.46-101.21 74.58-169.15 74.58-123.27 0-239-104.15-239-240.02 0-136.27 116.89-241.04 237.85-241.04 66.03 0 126.59 31.23 169.92 75.58l39.51-53.41c-54.43-54.94-129.5-90.26-206.88-91.01-168.76 0-308.48 140.71-308.48 309.88 0 170.68 141.62 308.1 308.87 308.1zm540.72 0c170.81 0 309.51-138.94 309.51-308.48 0-170.55-138.69-309.5-309.12-309.5-170.17 0-308.87 138.94-308.87 309.5 0 169.53 138.69 308.48 308.48 308.48zm0-68.84c-132.43 0-240.4-107.83-240.4-240.02 0-132.43 107.97-241.05 240.4-241.05 133.08 0 241.43 108.62 241.43 241.05 0 132.19-108.35 240.02-241.43 240.02zM615.98 12390.71c119.29 0 245.33-20.25 357.88-92.27 162.06-105.79 211.57-261.11 211.57-391.65 0-213.83-96.78-369.14-369.13-573.95l-63.02-47.27c-186.82-141.81-238.59-220.59-238.59-324.12 0-135.06 101.29-231.85 267.85-231.85 146.31 0 211.58 67.52 245.34 110.3 47.27 58.52 58.52 128.29 58.52 148.56 0 26.99 6.75 40.51 22.5 40.51 18.01 0 24.76-18.01 24.76-67.52 0-175.57 9-240.83 9-270.1 0-15.76-11.25-22.52-31.51-27.01-58.51-15.77-153.05-38.26-299.36-38.26-312.86 0-519.94 177.81-519.94 425.39 0 182.31 85.53 339.89 333.12 533.44l103.54 81.03c186.82 146.3 220.58 249.85 220.58 360.14 0 119.29-99.03 256.59-301.61 256.59-139.55 0-272.36-60.76-321.87-227.33-11.26-38.27-20.25-85.54-20.25-114.8 0-18.02-2.25-38.27-22.51-38.27-18.01 0-24.75 24.77-27 58.52-2.25 36.02-11.26 171.07-11.26 294.86 0 49.52 6.75 60.78 42.77 76.53 96.78 42.76 198.07 58.52 328.62 58.52zm1697.12-605.46c11.26 0 18.02 4.49 22.51 15.75l180.06 463.66c11.26 27.02-4.5 47.28-20.25 51.79-22.5 2.25-31.51 6.74-31.51 20.25 0 15.75 27.01 15.75 67.52 18 180.07 4.51 344.38 4.51 425.41 4.51 83.28 0 103.53-4.51 103.53-22.5 0-15.76-11.25-18.01-29.26-18.01-27 0-60.76-2.25-94.53-9.01-47.27-11.25-112.54-42.76-198.07-245.33-144.06-342.14-504.19-1242.46-558.21-1366.27-22.5-51.76-36.01-72.01-56.27-72.01-22.5 0-36.01 24.74-63.02 90.03l-564.96 1395.52c-45.02 112.53-87.78 189.07-191.32 202.56-18.01 2.26-49.52 4.51-69.77 4.51-18.02 0-27.01 4.49-27.01 18.01 0 18 13.51 22.5 42.77 22.5 117.04 0 240.83-6.76 265.6-6.76 69.77 0 166.55 6.76 238.58 6.76 24.75 0 38.26-4.51 38.26-22.5 0-13.52-6.75-18.01-33.76-18.01h-33.76c-69.78 0-90.04-29.26-90.04-69.78 0-27 11.26-81.04 33.76-137.29l121.55-308.38c4.5-13.51 9.01-18 20.25-18h501.93zm-456.91-112.55c-9 0-11.25-6.76-9-15.75l207.07-551.47c2.25-8.99 6.75-20.25 13.51-20.25 6.75 0 9 11.27 11.26 20.25l202.56 553.72c2.26 6.74 0 13.5-11.25 13.5h-414.16zm1542.57-558.21h6.76c40.51 42.78 290.35 317.37 535.31 560.46 234.09 231.84 522.2 526.7 663.62 661.75 24.76 24.75 51.78 49.52 76.53 49.52 20.25 0 29.26-20.25 29.26-69.77l24.76-1420.28c2.25-126.04 20.25-173.3 83.28-191.31 27.01-6.77 45.02-6.77 67.52-6.77 27.01 0 40.52-6.74 40.52-20.25 0-18.01-22.51-20.25-51.77-20.25-110.29 0-195.83 6.76-220.59 6.76-47.27 0-155.3-6.76-271.97-6.76-33.77 0-58.52 2.25-58.52 20.25 0 13.52 9 20.25 36.01 20.25 31.51 0 85.54 0 118.92 13.52 54.03 22.5 74.28 65.26 76.53 202.56l22.51 1010.63h-11.26c-38.27-36.03-341.76-360.14-494.8-513.19-328.25-326.38-670.38-686.5-697.38-715.76-38.64-40.52-58.9-69.77-83.66-69.77-22.51 0-29.26 31.5-29.26 76.52l-20.25 1325.73c-2.26 195.83-11.26 261.11-69.78 279.11-31.51 9.01-72.03 11.26-101.28 11.26-22.51 0-36.02 4.49-36.02 18.01 0 20.25 20.26 22.5 49.52 22.5 117.05 0 222.84-6.76 243.09-6.76 43.14 0 133.17 6.76 279.47 6.76 31.51 0 51.78-4.51 51.78-22.5 0-13.52-13.51-18.01-38.27-18.01-36.01 0-78.78-2.25-117.04-15.77-45.02-15.75-74.28-74.27-78.78-249.83l-24.76-938.6zm2029.49 591.98c0 207.07 0 384.88-11.26 479.41-9.01 65.29-20.25 114.81-65.27 123.81-20.26 4.5-47.27 9.01-81.03 9.01-27.01 0-36.02 6.74-36.02 18.01 0 15.75 15.76 22.5 45.02 22.5 45.02 0 103.54-4.51 155.31-4.51 54.03-2.25 103.54-2.25 128.29-2.25 67.53 0 137.3 2.25 234.09 6.76 96.78 2.25 220.58 6.76 389.39 6.76 85.54 0 105.79 0 121.55-58.52 11.26-45.02 29.26-198.09 29.26-249.85 0-22.49 0-40.51-18.01-40.51-15.76 0-20.26 9.01-24.76 33.77-15.76 92.28-42.77 139.55-101.28 166.54-58.52 27.01-153.06 27.01-211.58 27.01-229.59 0-265.6-33.75-270.1-189.06-2.25-65.28 0-272.36 0-348.87v-177.83c0-13.51 2.25-22.5 13.51-22.5 54.02 0 276.84 2.25 319.61 6.76 83.28 9.01 114.79 42.76 126.05 87.79 6.76 29.26 6.76 58.52 9.01 81.02 0 11.26 4.5 20.25 20.25 20.25 20.25 0 20.25-24.74 20.25-42.75 0-15.77 6.76-105.8 9.01-150.82 9-114.78 18.01-150.81 18.01-164.31 0-13.51-6.75-18.01-15.76-18.01-11.26 0-20.25 11.25-36.01 29.26-20.26 22.5-54.03 29.26-108.04 33.75-51.78 4.52-310.61 4.52-360.13 4.52-13.51 0-15.76-9.01-15.76-24.77v-569.44c0-15.76 4.5-22.52 15.76-22.52 45.02 0 281.35 4.51 319.61 9.01 112.54 13.52 135.05 40.51 150.81 81.03 11.26 27.01 13.51 65.28 13.51 81.04 0 20.25 4.5 31.51 20.25 31.51 15.76 0 20.25-13.52 22.5-24.76 4.51-27 9.01-126.04 11.26-148.56 6.76-103.53 18.01-130.53 18.01-146.3 0-11.26-2.25-20.26-13.51-20.26-11.25 0-24.75 6.77-36.01 9.01-18.01 4.51-54.02 9.01-96.78 13.52-42.77 2.25-490.68 2.25-562.71 2.25-31.51 0-83.28-2.25-141.8-4.51-56.27 0-121.55-2.25-182.32-2.25-33.76 0-49.52 4.51-49.52 20.25 0 15.77 13.51 20.25 38.27 20.25 31.51 0 69.77 2.25 87.78 6.77 74.28 15.76 92.28 51.76 96.78 128.29 4.51 72.01 4.51 135.04 4.51 477.16v396.16zm1721.88 0c0 207.07 0 384.88-11.26 479.41-6.75 65.29-20.25 114.81-65.27 123.81-20.25 4.5-47.27 9.01-81.03 9.01-27.01 0-36.02 6.74-36.02 18.01 0 15.75 15.76 22.5 45.02 22.5 90.04 0 231.84-6.76 283.6-6.76 63.02 0 204.83 6.76 353.38 6.76 24.76 0 42.77-6.76 42.77-22.5 0-11.27-11.26-18.01-36.02-18.01-33.76 0-83.28-4.51-114.79-9.01-67.52-9-81.03-58.51-87.79-121.56-11.25-96.77-11.25-274.58-11.25-481.66v-922.84l283.6 6.75c200.33 4.5 261.1 67.51 265.6 126.04l2.25 24.77c2.25 33.75 6.75 45.01 24.76 45.01 13.5 0 18.01-13.51 20.25-36.01 0-58.51 6.75-213.83 6.75-261.1 0-33.76-2.25-47.26-18.01-47.26-9 0-27.01 4.5-60.77 11.25-33.76 4.5-83.28 11.26-155.31 11.26h-891.33c-74.27 0-159.81-4.51-225.08-11.26-56.27-4.51-78.78-27-96.78-27-13.51 0-20.26 13.49-27.01 42.75-4.5 18.02-47.27 222.85-47.27 258.86 0 24.75 4.5 36 20.25 36 13.51 0 20.26-9 24.76-27.01 4.5-18 15.76-45 38.26-78.78 33.77-49.52 87.79-60.77 218.33-65.26l335.38-9v922.84zm1593.57-333.13c-6.75 0-13.5-4.51-13.5-15.77v-47.27c0-342.12 0-405.15 4.5-477.16 4.5-78.78 22.5-117.05 83.28-128.29 27.01-4.52 47.27-6.77 65.27-6.77 27.01 0 40.52-4.49 40.52-20.25 0-15.75-15.76-20.25-47.27-20.25-87.79 0-229.59 6.76-283.6 6.76-60.77 0-202.57-6.76-324.12-6.76-31.51 0-47.27 4.51-47.27 20.25 0 15.77 13.51 20.25 38.27 20.25 31.51 0 69.77 2.25 87.78 6.77 74.28 15.76 92.28 51.76 96.78 128.29 4.51 72.01 4.51 135.04 4.51 477.16v396.16c0 207.07 0 384.88-11.26 479.41-9.01 65.29-20.25 114.81-65.27 123.81-20.26 4.5-47.27 9.01-81.03 9.01-27.01 0-36.02 6.74-36.02 18.01 0 15.75 15.76 22.5 45.02 22.5 90.04 0 231.84-6.76 283.6-6.76 63.02 0 204.82 6.76 351.13 6.76 27 0 45.02-6.76 45.02-22.5 0-11.27-11.26-18.01-36.02-18.01-33.76 0-83.28-4.51-114.79-9.01-67.52-9-81.03-58.51-87.79-121.56-11.25-96.77-11.25-274.58-11.25-481.66v-198.09c0-11.26 6.75-13.51 13.5-13.51h859.81c6.76 0 13.51 4.5 13.51 13.51v198.09c0 207.07 0 384.88-11.25 479.41-9.01 65.29-20.26 114.81-65.28 123.81-20.25 4.5-47.27 9.01-81.03 9.01-27 0-36.01 6.74-36.01 18.01 0 15.75 15.76 22.5 47.27 22.5 87.79 0 229.59-6.76 281.35-6.76 63.02 0 204.82 6.76 351.12 6.76 27.01 0 45.02-6.76 45.02-22.5 0-11.27-11.25-18.01-36.01-18.01-33.76 0-83.28-4.51-114.79-9.01-67.53-9-81.03-58.51-87.79-121.56-11.26-96.77-11.26-274.58-11.26-481.66v-396.16c0-342.12 0-405.15 4.51-477.16 4.5-78.78 22.5-117.05 83.28-128.29 27.01-4.52 47.27-6.77 65.27-6.77 27.01 0 40.52-4.49 40.52-20.25 0-15.75-15.76-20.25-47.27-20.25-87.79 0-229.59 6.76-283.6 6.76-60.77 0-202.57-6.76-324.12-6.76-31.51 0-47.27 4.51-47.27 20.25 0 15.77 13.51 20.25 38.26 20.25 31.51 0 69.78 2.25 87.79 6.77 74.28 15.76 92.28 51.76 96.78 128.29 4.5 72.01 4.5 135.04 4.5 477.16v47.27c0 11.26-6.75 15.77-13.51 15.77h-859.81z" class="fil1"/><path d="M5012.33 964.91c-23.51-15.53 48.39-114.55 161.76-207.3 113.35-92.74 268.18-179.2 440.11-266.15 171.94-86.95 361.01-174.36 551.67-246.77 190.67-72.38 382.97-129.76 571.2-163.75 188.26-33.99 372.46-44.62 574.05-32.21 201.57 12.44 420.53 47.94 607.58 109.01 187.03 61.1 342.18 147.81 472.38 245.35 130.15 97.57 235.37 206.03 317.48 332.91 82.13 126.88 141.15 272.18 173.74 470 32.6 197.82 38.76 448.17 3.23 729.11-35.54 280.91-112.77 592.45-222.18 938.15-109.43 345.66-251.04 725.47-368.46 1024.92-117.43 299.44-210.64 518.49-325.91 757.08-115.27 238.57-252.62 496.67-389.79 719.54-137.19 222.84-274.17 410.43-406.58 558.63-132.4 148.19-260.22 257-370.26 316.19-123.48 66.44-233.96 83.16-374.02 78.25-145.23-5.1-261.59-50.39-349.06-135.86-87.47-85.49-151.07-206.46-190.8-362.97-26-88.17-36.77-195.18-32.35-321.05 4.9-138.77 24.71-289.13 59.5-451.12 34.76-161.96 76.84-324.46 126.2-487.53s104.08-317.88 164.16-464.39c60.08-146.55 116.27-273.83 168.54-381.85 65.96-130.17 124.87-242.82 176.66-337.93 51.83-95.12 100.1-181.49 144.85-259.07 44.73-77.59 88.53-151.19 131.35-220.78 42.85-69.57 88.22-142.29 136.11-218.17 6.91-12.69 10.49-22.24 10.71-28.71.57-16.13-7.21-24.48-23.35-25.04-3.23-.14-11.41 2.81-24.54 8.83-572.85 393.45-1117.45 833.16-1633.79 1319.11-516.35 485.94-1003.06 979.39-1460.13 1480.32-13.14 6.01-26.24 11.21-39.32 15.59-13.09 4.41-27.81 9.54-44.18 15.42-16.37 5.89-32.75 12.58-49.17 20.09-16.43 7.49-32.81 14.19-49.18 20.07-9.92 6.1-18.96 10.66-27.13 13.58-8.18 2.96-17.13 4.24-26.8 3.93-48.41-1.73-71.66-30-69.72-84.88l.69-19.35c15.05-60.86 31.55-116.85 49.52-167.9 17.96-51.08 40.97-108.43 69.07-172.05 77.13-171.81 170.03-355.94 278.74-552.47 108.7-196.55 223.95-396.04 345.79-598.57a23268.227 23268.227 0 0 1 375.03-602.41c105.85-164.41 208.11-320.63 306.77-468.76-130.54 25.23-263.4 57.97-396.28 101.02-317.49 112.82-299.11 24.81-22.76-75.58 161.86-52.43 326.21-98.04 492.18-134.7 113.31-168.68 217.81-322.53 313.42-461.53 98.76-143.55 182.06-260.99 249.89-352.31-226.7 14.65-437.22 28.24-631.54 40.81-194.33 12.57-378.34 30.31-552.02 53.29-173.69 22.97-341.19 53.46-502.47 91.39-161.29 37.96-320.58 88.11-477.87 150.43-29.49 11.9-49.22 20.87-59.11 26.99-9.92 6.11-15.15 17.24-15.72 33.39-.91 25.8 14.39 50.58 45.86 74.32 81.98 57.81 158.41 113.01 229.27 165.59 70.85 52.56 151.17 88.53 240.98 107.82 51.3 11.5 107.6 18.32 168.93 20.48 41.94 1.48 71.05.9 87.29-1.76l14.53.49c19.37.69 28.83 7.49 28.36 20.38-.22 6.47-2.89 13.65-8.02 21.53-5.13 7.91-12.59 13.3-22.38 16.19-26.04 5.53-51.23 9.5-75.55 11.88-24.3 2.39-49.38 3.12-75.22 2.21-190.4-6.7-363.36-49.94-518.92-129.74-53.96-27.73-99.95-51.98-137.99-72.71-38.06-20.71-65.03-34.6-80.93-41.61-34.95-17.39-60.79-40.93-77.52-70.58-16.73-29.67-24.68-55.82-23.89-78.4.9-25.82 11.53-52.11 31.85-78.85 20.34-26.75 45.32-47.7 74.91-62.81 276.11-132.47 622.17-233.39 1038.25-302.78 415.15-69.25 884.25-117.28 1407.29-144.1l81.53-110.05c57.51-76.2 96.1-120.4 154.71-142.53 57.47-21.68 121.25-16.39 227.35 6.96 219.13 48.27 546.36 139.01 720.53 205.12 41.72 15.81 75.66 30.67 98.66 43.75 57.17 32.44 75.44 70.69 44.47 114.77-8.49 11.87-20.2 20.88-35.31 26.68l-12.69 4.88-79.4-6.2c-363.04-26.81-740.88-17.38-1105.86-4.42-47.88 45.87-111.49 122.72-190.83 230.54-95 129.13-202.25 284.52-321.75 466.13-18.38 27.94-36.91 56.33-55.63 85.19 261.94-45.95 526.89-67.93 791.34-57.91 457.28 34.83 316.88 89.36 157.78 114.95-101.23 16.3-199.78 15.77-301.76 16.42-163.23 1.09-340.58-1.44-532.87 18.69-61.9 6.49-124.94 14.2-188.83 23.35-80.35 125.91-163.62 259.72-249.87 401.54-133.76 219.87-265.21 443.07-394.36 669.59-129.12 226.48-250.82 447.59-365.02 663.32-114.23 215.72-211.51 409.4-291.88 581.08-3.45 6.35-5.31 12.76-5.53 19.18-.57 16.15 4 24.39 13.68 24.71 19.36.68 37.57-11.6 54.63-36.84 171.4-187.87 375.87-397.18 613.4-627.96 237.55-230.76 492.99-464.94 766.31-702.54 273.33-237.56 558.66-471.53 855.95-701.8 297.31-230.28 593.1-440.43 887.38-630.43 52.99-36.91 102.08-54.58 147.27-52.99 25.82.91 46.53 9.73 62.08 26.41 15.58 16.7 23.02 34.75 22.34 54.11-.35 9.69-2.31 19.29-5.86 28.87-76 139.52-143.33 262.37-201.99 368.54-58.69 106.21-113.92 206.84-165.73 301.99a11869.979 11869.979 0 0 0-150.61 285.52c-48.59 95.24-100.84 203.24-156.81 324.08-63.08 139.96-122.34 285.7-177.75 437.27-55.41 151.52-103.57 303.33-144.46 455.38-40.89 152.06-73.54 299.56-97.96 442.51-24.4 142.92-38.66 272.48-42.75 388.68-1.59 45.17-1.47 87.99.33 128.42 1.82 40.47 5.33 78.58 10.55 114.29 20.58 149.38 69.08 263.37 145.49 342 76.4 78.62 164.62 119.7 264.68 123.22 212.4 7.44 376.55-212.67 486.52-368.8 106.89-151.73 247.43-379.81 398.42-721.88 150.99-342.08 312.39-798.17 442.18-1236.11 129.75-437.96 227.89-857.8 296.96-1256.2 69.07-398.4 109.09-775.4 100.6-1081.39-8.48-306-65.45-541-168.49-726.32-103.07-185.36-252.22-320.98-404.02-411.84-151.8-90.84-306.24-136.9-476.56-156.78-170.31-19.89-356.51-13.62-518.84 12.75-162.34 26.36-300.8 72.79-454.18 125.65-153.37 52.85-321.67 112.15-486.01 180.9-164.37 68.8-324.78 147.05-464.42 220.19-139.67 73.1-258.58 141.09-282.07 125.56zm836.29 828.25 44.44-1.11c253.17-5.77 503.79-2.44 748.56 9.28-163.15-49.82-359.3-101.45-506.74-133.92-82.44-18.15-128.37-23.64-158.74-12.2-29.25 11.06-56.81 44.12-100.77 102.34l-26.74 35.61z" class="fil0"/><path d="M6674.83 1237.17c-19.05 16.7-86.82 59.21-209.7 89.1-122.92 29.89-300.98 47.13-465.89 56.31-164.94 9.15-316.75 10.24-503.36-2.75-186.58-12.98-407.96-40-622.97-95.66-215.05-55.65-423.71-139.96-629.01-229.47-205.28-89.53-407.19-184.27-592.45-265.6-185.26-81.34-353.9-149.28-479.66-190.06-125.76-40.73-208.67-54.38-302.64-56.57-93.99-2.23-199.06 6.89-295.35 39.86-96.28 32.93-183.8 89.72-255.09 171.65-71.3 81.94-126.36 189.01-157.58 317.27-31.24 128.22-38.65 277.6-41.49 449.6-2.84 172-1.12 366.62 32.57 624.31 33.71 257.72 99.35 578.57 260.92 1060.95 161.53 482.42 418.95 1126.4 605.95 1553.03 187.04 426.64 303.68 635.98 407.91 803.19 104.2 167.21 196.02 292.27 280.31 387.18 84.33 94.89 161.16 159.59 226.58 183.25 65.44 23.68 119.5 6.35 173.03-27.04 53.57-33.41 106.59-82.84 171.09-153.25 64.46-70.41 140.35-161.83 217.96-271.3 77.62-109.53 156.92-237.15 215.42-350.49 58.5-113.42 96.17-212.55 143.28-335.95 47.09-123.45 103.58-271.09 132.29-357.73 28.69-86.63 29.58-112.23 30.04-125.06.46-12.81.46-12.81-8.29 53.16-8.73 65.96-26.2 197.89-61.23 374.12-35.06 176.19-87.71 396.64-138.72 570.14-50.99 173.52-100.33 300.06-157.14 426.32-56.81 126.28-121.11 252.26-180.07 348.52-58.96 96.27-112.61 162.8-169.1 219.59-56.52 56.81-115.92 103.89-175.48 126.37-59.58 22.48-119.36 20.39-226.46-34.7-107.07-55.04-261.49-163.11-434.87-369.07-173.41-205.97-365.82-509.89-485.15-703.3-119.33-193.37-165.57-276.23-248.38-444.82-82.77-168.6-202.09-422.91-314.48-691.92-112.41-269.08-217.88-552.81-310.81-827.58-92.95-274.76-173.4-540.53-241.37-818.71-67.97-278.16-123.49-568.72-151.95-845.77-28.46-277.01-29.9-540.53-21.86-738.28 8-197.75 25.47-329.67 63.12-457.65 37.61-128.01 95.42-252.1 159.84-351.37 64.44-99.31 135.45-173.76 234.78-232.27 99.33-58.5 226.95-101.04 370.58-112.03 143.6-11.01 303.22 9.61 518.11 99.46 214.9 89.84 485.09 248.98 686.33 361.89 201.26 112.89 333.59 179.54 529.83 282.66 196.29 103.08 456.46 242.63 740.73 334.95 284.27 92.29 592.68 137.34 821.84 156.07 229.16 18.77 379.08 11.2 502.13 6.99 123.09-4.23 219.31-5.12 282.26-10.15 62.97-4.98 92.67-14.11 73.65 2.59z" class="fil0"/></g></svg>